<svg xmlns="http://www.w3.org/2000/svg" width="74.406" height="59.599" viewBox="0 0 74.406 59.599">
  <g id="Group_4" data-name="Group 4" transform="translate(0 0)">
    <g id="Group_2" data-name="Group 2">
      <path id="Path_9" data-name="Path 9" d="M-321.086,638.712l10.435,3.416,1.8,3.587-4.033,7.644Z" transform="translate(332.495 -613.353)" fill="#fcfbfa"/>
      <path id="Path_10" data-name="Path 10" d="M-321.086,638.712l10.435,3.416,1.8,3.587-4.033,7.644Z" transform="translate(332.495 -613.353)" fill="#fcfbfa"/>
      <path id="Path_11" data-name="Path 11" d="M-391,507.915h8.852l10.9,19.792,22.339-41.176L-338.2,483.3l-33.422,59Z" transform="translate(391.002 -483.304)" fill="#fcfbfa"/>
      <path id="Path_12" data-name="Path 12" d="M-391,507.915h8.852l10.9,19.792,22.339-41.176L-338.2,483.3l-33.422,59Z" transform="translate(391.002 -483.304)" fill="#fcfbfa"/>
    </g>
    <g id="Group_3" data-name="Group 3" transform="translate(21.602 0.601)">
      <path id="Path_13" data-name="Path 13" d="M-67.671,618.029l-10.435-3.416-1.8-3.587,4.033-7.644Z" transform="translate(109.066 -584.389)" fill="#fcfbfa"/>
      <path id="Path_14" data-name="Path 14" d="M-67.671,618.029l-10.435-3.416-1.8-3.587,4.033-7.644Z" transform="translate(109.066 -584.389)" fill="#fcfbfa"/>
      <path id="Path_15" data-name="Path 15" d="M-205.814,521.373h-8.852l-10.9-19.792-22.339,41.175-10.708,3.227,33.423-59Z" transform="translate(258.618 -486.985)" fill="#fcfbfa"/>
      <path id="Path_16" data-name="Path 16" d="M-205.814,521.373h-8.852l-10.9-19.792-22.339,41.175-10.708,3.227,33.423-59Z" transform="translate(258.618 -486.985)" fill="#fcfbfa"/>
    </g>
  </g>
</svg>
